# xmcd
# 
# Track frame offsets:
#     150
#     17914
#     37327
#     57352
#     72868
#     92606
#     112680
#     127997
#     149233
#     171319
#     184616
# 
# Disc length: 2589
# 
# Revision: 0
# Processed by: cddbd v1.5.2PL0 Copyright (c) Steve Scherf et al.
# Submitted via: fre:ac v1.0.17
# 
DISCID=9d0a1b0b
DTITLE=Mark Jackson Band - A Real Charmed Life
DYEAR=2009
DGENRE=Country
TTITLE0=Man of Misery
TTITLE1=Open Wide
TTITLE2=Lost Time on the Old Highway
TTITLE3=A Real Charmed Life
TTITLE4=Not Long for this World
TTITLE5=Time Knows No Healing
TTITLE6=Never Come Back the Same
TTITLE7=Naked in the Sun
TTITLE8=Stones Against the Rain
TTITLE9=Goodnight Sweet World
TTITLE10=Out at the Edge of Town
EXTD=
EXTT0=
EXTT1=
EXTT2=
EXTT3=
EXTT4=
EXTT5=
EXTT6=
EXTT7=
EXTT8=
EXTT9=
EXTT10=
PLAYORDER=
